<svg width="206" height="131" viewBox="0 0 206 131" fill="none" xmlns="http://www.w3.org/2000/svg">
<path d="M103 0L206 66.5L103 131L0 66.5L103 0Z" fill="#F4AECE"/>
<path d="M97.6406 70.7109V68.8828C97.2604 68.9141 96.849 68.9583 96.4062 69.0156C95.9635 69.0677 95.6276 69.1302 95.3984 69.2031C95.1172 69.2917 94.901 69.4219 94.75 69.5938C94.6042 69.7604 94.5312 69.9818 94.5312 70.2578C94.5312 70.4401 94.5469 70.5885 94.5781 70.7031C94.6094 70.8177 94.6875 70.9271 94.8125 71.0312C94.9323 71.1354 95.0755 71.2135 95.2422 71.2656C95.4089 71.3125 95.6693 71.3359 96.0234 71.3359C96.3047 71.3359 96.5885 71.2786 96.875 71.1641C97.1667 71.0495 97.4219 70.8984 97.6406 70.7109ZM97.6406 72.0703C97.4896 72.1849 97.3021 72.3229 97.0781 72.4844C96.8542 72.6458 96.6432 72.7734 96.4453 72.8672C96.1693 72.9922 95.8828 73.0833 95.5859 73.1406C95.2891 73.2031 94.9635 73.2344 94.6094 73.2344C93.776 73.2344 93.0781 72.9766 92.5156 72.4609C91.9531 71.9453 91.6719 71.2865 91.6719 70.4844C91.6719 69.8438 91.8151 69.3203 92.1016 68.9141C92.388 68.5078 92.7943 68.1875 93.3203 67.9531C93.8411 67.7188 94.487 67.5521 95.2578 67.4531C96.0286 67.3542 96.8281 67.2812 97.6562 67.2344V67.1875C97.6562 66.7031 97.4583 66.3698 97.0625 66.1875C96.6667 66 96.0833 65.9062 95.3125 65.9062C94.849 65.9062 94.3542 65.9896 93.8281 66.1562C93.3021 66.3177 92.9245 66.4427 92.6953 66.5312H92.4375V64.4141C92.7344 64.3359 93.2161 64.2448 93.8828 64.1406C94.5547 64.0312 95.2266 63.9766 95.8984 63.9766C97.4974 63.9766 98.651 64.224 99.3594 64.7188C100.073 65.2083 100.43 65.9792 100.43 67.0312V73H97.6406V72.0703ZM111.828 73H109V68.6484C109 68.2943 108.982 67.9427 108.945 67.5938C108.909 67.2396 108.846 66.9792 108.758 66.8125C108.654 66.6198 108.5 66.4792 108.297 66.3906C108.099 66.3021 107.82 66.2578 107.461 66.2578C107.206 66.2578 106.945 66.2995 106.68 66.3828C106.419 66.4661 106.135 66.599 105.828 66.7812V73H103.016V64.2266H105.828V65.1953C106.328 64.8047 106.807 64.5052 107.266 64.2969C107.729 64.0885 108.242 63.9844 108.805 63.9844C109.753 63.9844 110.492 64.2604 111.023 64.8125C111.56 65.3646 111.828 66.1901 111.828 67.2891V73Z" fill="black"/>
</svg>
