<svg width="206" height="131" viewBox="0 0 206 131" fill="none" xmlns="http://www.w3.org/2000/svg">
<path d="M103 0L206 66.5L103 131L0 66.5L103 0Z" fill="#F4AECE"/>
<path d="M97.6406 70.7109V68.8828C97.2604 68.9141 96.849 68.9583 96.4062 69.0156C95.9635 69.0677 95.6276 69.1302 95.3984 69.2031C95.1172 69.2917 94.901 69.4219 94.75 69.5938C94.6042 69.7604 94.5312 69.9818 94.5312 70.2578C94.5312 70.4401 94.5469 70.5885 94.5781 70.7031C94.6094 70.8177 94.6875 70.9271 94.8125 71.0312C94.9323 71.1354 95.0755 71.2135 95.2422 71.2656C95.4089 71.3125 95.6693 71.3359 96.0234 71.3359C96.3047 71.3359 96.5885 71.2786 96.875 71.1641C97.1667 71.0495 97.4219 70.8984 97.6406 70.7109ZM97.6406 72.0703C97.4896 72.1849 97.3021 72.3229 97.0781 72.4844C96.8542 72.6458 96.6432 72.7734 96.4453 72.8672C96.1693 72.9922 95.8828 73.0833 95.5859 73.1406C95.2891 73.2031 94.9635 73.2344 94.6094 73.2344C93.776 73.2344 93.0781 72.9766 92.5156 72.4609C91.9531 71.9453 91.6719 71.2865 91.6719 70.4844C91.6719 69.8438 91.8151 69.3203 92.1016 68.9141C92.388 68.5078 92.7943 68.1875 93.3203 67.9531C93.8411 67.7188 94.487 67.5521 95.2578 67.4531C96.0286 67.3542 96.8281 67.2812 97.6562 67.2344V67.1875C97.6562 66.7031 97.4583 66.3698 97.0625 66.1875C96.6667 66 96.0833 65.9062 95.3125 65.9062C94.849 65.9062 94.3542 65.9896 93.8281 66.1562C93.3021 66.3177 92.9245 66.4427 92.6953 66.5312H92.4375V64.4141C92.7344 64.3359 93.2161 64.2448 93.8828 64.1406C94.5547 64.0312 95.2266 63.9766 95.8984 63.9766C97.4974 63.9766 98.651 64.224 99.3594 64.7188C100.073 65.2083 100.43 65.9792 100.43 67.0312V73H97.6406V72.0703ZM111.758 73H108.945V72.0312C108.424 72.4271 107.948 72.7292 107.516 72.9375C107.083 73.1406 106.568 73.2422 105.969 73.2422C105 73.2422 104.253 72.9635 103.727 72.4062C103.206 71.849 102.945 71.026 102.945 69.9375V64.2266H105.773V68.5781C105.773 69.0208 105.786 69.3906 105.812 69.6875C105.844 69.9792 105.911 70.2214 106.016 70.4141C106.115 70.6068 106.263 70.7474 106.461 70.8359C106.664 70.9245 106.945 70.9688 107.305 70.9688C107.544 70.9688 107.81 70.9245 108.102 70.8359C108.393 70.7474 108.674 70.6172 108.945 70.4453V64.2266H111.758V73ZM122.047 70.2188C122.047 71.125 121.641 71.8568 120.828 72.4141C120.016 72.9661 118.904 73.2422 117.492 73.2422C116.711 73.2422 116.003 73.1693 115.367 73.0234C114.732 72.8776 114.221 72.7161 113.836 72.5391V70.2266H114.094C114.234 70.3255 114.396 70.4349 114.578 70.5547C114.766 70.6693 115.029 70.7943 115.367 70.9297C115.659 71.0495 115.99 71.1536 116.359 71.2422C116.729 71.3255 117.125 71.3672 117.547 71.3672C118.099 71.3672 118.508 71.3073 118.773 71.1875C119.039 71.0625 119.172 70.8802 119.172 70.6406C119.172 70.4271 119.094 70.2734 118.938 70.1797C118.781 70.0807 118.484 69.987 118.047 69.8984C117.839 69.8516 117.555 69.8021 117.195 69.75C116.841 69.6927 116.518 69.625 116.227 69.5469C115.43 69.3385 114.839 69.0156 114.453 68.5781C114.068 68.1354 113.875 67.5859 113.875 66.9297C113.875 66.0859 114.273 65.3854 115.07 64.8281C115.872 64.2656 116.966 63.9844 118.352 63.9844C119.008 63.9844 119.635 64.0521 120.234 64.1875C120.839 64.3177 121.31 64.4583 121.648 64.6094V66.8281H121.406C120.99 66.5417 120.513 66.3099 119.977 66.1328C119.445 65.9505 118.906 65.8594 118.359 65.8594C117.906 65.8594 117.523 65.9219 117.211 66.0469C116.904 66.1719 116.75 66.349 116.75 66.5781C116.75 66.7865 116.82 66.9453 116.961 67.0547C117.102 67.1641 117.432 67.2734 117.953 67.3828C118.24 67.4401 118.547 67.4974 118.875 67.5547C119.208 67.6068 119.542 67.6745 119.875 67.7578C120.615 67.9505 121.161 68.2552 121.516 68.6719C121.87 69.0833 122.047 69.599 122.047 70.2188Z" fill="black"/>
</svg>
