<svg width="240" height="240" viewBox="0 0 240 240" fill="none" xmlns="http://www.w3.org/2000/svg">
<path d="M120 0L223.923 60V180L120 240L16.077 180V60L120 0Z" fill="#EB555B"/>
<path d="M105.344 182H101.664L98.1875 177.344L97.4844 178.195V182H94.4844V170.367H97.4844V175.633L101.641 170.367H105.117L100.57 175.75L105.344 182ZM115.484 182H112.656V177.648C112.656 177.294 112.638 176.943 112.602 176.594C112.565 176.24 112.503 175.979 112.414 175.812C112.31 175.62 112.156 175.479 111.953 175.391C111.755 175.302 111.477 175.258 111.117 175.258C110.862 175.258 110.602 175.299 110.336 175.383C110.076 175.466 109.792 175.599 109.484 175.781V182H106.672V173.227H109.484V174.195C109.984 173.805 110.464 173.505 110.922 173.297C111.385 173.089 111.898 172.984 112.461 172.984C113.409 172.984 114.148 173.26 114.68 173.812C115.216 174.365 115.484 175.19 115.484 176.289V182ZM127.047 177.617C127.047 179.06 126.625 180.198 125.781 181.031C124.943 181.859 123.763 182.273 122.242 182.273C120.721 182.273 119.539 181.859 118.695 181.031C117.857 180.198 117.438 179.06 117.438 177.617C117.438 176.164 117.859 175.023 118.703 174.195C119.552 173.367 120.732 172.953 122.242 172.953C123.773 172.953 124.956 173.37 125.789 174.203C126.628 175.036 127.047 176.174 127.047 177.617ZM123.586 179.75C123.768 179.526 123.904 179.258 123.992 178.945C124.086 178.628 124.133 178.19 124.133 177.633C124.133 177.117 124.086 176.685 123.992 176.336C123.898 175.987 123.768 175.708 123.602 175.5C123.435 175.286 123.234 175.135 123 175.047C122.766 174.958 122.513 174.914 122.242 174.914C121.971 174.914 121.729 174.951 121.516 175.023C121.307 175.096 121.107 175.242 120.914 175.461C120.742 175.664 120.604 175.943 120.5 176.297C120.401 176.651 120.352 177.096 120.352 177.633C120.352 178.112 120.396 178.529 120.484 178.883C120.573 179.232 120.703 179.513 120.875 179.727C121.042 179.93 121.24 180.078 121.469 180.172C121.703 180.266 121.969 180.312 122.266 180.312C122.521 180.312 122.763 180.271 122.992 180.188C123.227 180.099 123.424 179.953 123.586 179.75ZM138.219 177.492C138.219 178.216 138.107 178.875 137.883 179.469C137.664 180.062 137.375 180.552 137.016 180.938C136.641 181.344 136.216 181.651 135.742 181.859C135.268 182.068 134.76 182.172 134.219 182.172C133.719 182.172 133.294 182.117 132.945 182.008C132.596 181.904 132.24 181.755 131.875 181.562V185.219H129.062V173.227H131.875V174.141C132.307 173.797 132.747 173.518 133.195 173.305C133.648 173.091 134.169 172.984 134.758 172.984C135.852 172.984 136.701 173.385 137.305 174.188C137.914 174.99 138.219 176.091 138.219 177.492ZM135.32 177.547C135.32 176.693 135.174 176.073 134.883 175.688C134.591 175.302 134.13 175.109 133.5 175.109C133.234 175.109 132.961 175.151 132.68 175.234C132.398 175.312 132.13 175.427 131.875 175.578V179.992C132.062 180.065 132.263 180.112 132.477 180.133C132.69 180.154 132.901 180.164 133.109 180.164C133.854 180.164 134.409 179.948 134.773 179.516C135.138 179.078 135.32 178.422 135.32 177.547ZM145.938 171.906H145.727C145.602 171.87 145.438 171.828 145.234 171.781C145.036 171.734 144.823 171.711 144.594 171.711C144.042 171.711 143.667 171.81 143.469 172.008C143.276 172.206 143.18 172.589 143.18 173.156V173.227H145.352V175.133H143.273V182H140.461V175.133H139.258V173.227H140.461V172.984C140.461 171.911 140.745 171.107 141.312 170.57C141.885 170.034 142.75 169.766 143.906 169.766C144.323 169.766 144.701 169.781 145.039 169.812C145.378 169.839 145.677 169.875 145.938 169.922V171.906Z" fill="black"/>
</svg>
