<svg width="208" height="149" viewBox="0 0 208 149" fill="none" xmlns="http://www.w3.org/2000/svg">
<path d="M105 0L208 60V149L105 85L0 149V60L105 0Z" fill="#E2E7DF"/>
<path d="M94.0625 59H91.1719L86.2344 51.0156V59H83.4844V47.3672H87.0703L91.3125 54.0312V47.3672H94.0625V59ZM99.6875 59H96.875V50.2266H99.6875V59ZM99.7656 48.9766H96.7969V46.8438H99.7656V48.9766ZM106.914 59.2344C106.148 59.2344 105.448 59.1432 104.812 58.9609C104.182 58.7786 103.633 58.4974 103.164 58.1172C102.701 57.737 102.341 57.2578 102.086 56.6797C101.831 56.1016 101.703 55.4245 101.703 54.6484C101.703 53.8307 101.839 53.125 102.109 52.5312C102.385 51.9375 102.768 51.4453 103.258 51.0547C103.732 50.6849 104.279 50.4141 104.898 50.2422C105.518 50.0703 106.161 49.9844 106.828 49.9844C107.427 49.9844 107.979 50.0495 108.484 50.1797C108.99 50.3099 109.461 50.4792 109.898 50.6875V53.0859H109.5C109.391 52.9922 109.258 52.8828 109.102 52.7578C108.951 52.6328 108.763 52.5104 108.539 52.3906C108.326 52.276 108.091 52.1823 107.836 52.1094C107.581 52.0312 107.284 51.9922 106.945 51.9922C106.195 51.9922 105.617 52.2318 105.211 52.7109C104.81 53.1849 104.609 53.8307 104.609 54.6484C104.609 55.4922 104.815 56.1328 105.227 56.5703C105.643 57.0078 106.232 57.2266 106.992 57.2266C107.346 57.2266 107.664 57.1875 107.945 57.1094C108.232 57.026 108.469 56.9297 108.656 56.8203C108.833 56.7161 108.99 56.6068 109.125 56.4922C109.26 56.3776 109.385 56.2656 109.5 56.1562H109.898V58.5547C109.456 58.763 108.992 58.9271 108.508 59.0469C108.029 59.1719 107.497 59.2344 106.914 59.2344ZM120.578 59H117.75V54.6484C117.75 54.2943 117.732 53.9427 117.695 53.5938C117.659 53.2396 117.596 52.9792 117.508 52.8125C117.404 52.6198 117.25 52.4792 117.047 52.3906C116.849 52.3021 116.57 52.2578 116.211 52.2578C115.956 52.2578 115.695 52.2995 115.43 52.3828C115.169 52.4661 114.885 52.599 114.578 52.7812V59H111.766V46.8438H114.578V51.1953C115.078 50.8047 115.557 50.5052 116.016 50.2969C116.479 50.0885 116.992 49.9844 117.555 49.9844C118.503 49.9844 119.242 50.2604 119.773 50.8125C120.31 51.3646 120.578 52.1901 120.578 53.2891V59ZM128.781 58.9219C128.479 59 128.159 59.0599 127.82 59.1016C127.482 59.1484 127.068 59.1719 126.578 59.1719C125.484 59.1719 124.669 58.9505 124.133 58.5078C123.602 58.0651 123.336 57.3073 123.336 56.2344V52.1328H122.18V50.2266H123.336V47.7188H126.148V50.2266H128.781V52.1328H126.148V55.2422C126.148 55.5495 126.151 55.8177 126.156 56.0469C126.161 56.276 126.203 56.4818 126.281 56.6641C126.354 56.8464 126.482 56.9922 126.664 57.1016C126.852 57.2057 127.122 57.2578 127.477 57.2578C127.622 57.2578 127.812 57.2266 128.047 57.1641C128.286 57.1016 128.453 57.0443 128.547 56.9922H128.781V58.9219Z" fill="black"/>
</svg>
