<svg width="103" height="247" viewBox="0 0 103 247" fill="none" xmlns="http://www.w3.org/2000/svg">
<path d="M0 0L102.5 66.5V181L0 246.5V0Z" fill="#D9D9D9"/>
<path d="M44.6719 128.789C44.6719 130.227 44.2344 131.328 43.3594 132.094C42.4844 132.859 41.1953 133.242 39.4922 133.242C37.7891 133.242 36.5 132.859 35.625 132.094C34.7552 131.328 34.3203 130.229 34.3203 128.797V121.367H37.3359V128.625C37.3359 129.432 37.5052 130.034 37.8438 130.43C38.1823 130.826 38.7318 131.023 39.4922 131.023C40.2422 131.023 40.7891 130.833 41.1328 130.453C41.4818 130.073 41.6562 129.464 41.6562 128.625V121.367H44.6719V128.789ZM56.1406 133H53.3125V128.648C53.3125 128.294 53.2943 127.943 53.2578 127.594C53.2214 127.24 53.1589 126.979 53.0703 126.812C52.9661 126.62 52.8125 126.479 52.6094 126.391C52.4115 126.302 52.1328 126.258 51.7734 126.258C51.5182 126.258 51.2578 126.299 50.9922 126.383C50.7318 126.466 50.4479 126.599 50.1406 126.781V133H47.3281V124.227H50.1406V125.195C50.6406 124.805 51.1198 124.505 51.5781 124.297C52.0417 124.089 52.5547 123.984 53.1172 123.984C54.0651 123.984 54.8047 124.26 55.3359 124.812C55.8724 125.365 56.1406 126.19 56.1406 127.289V133ZM67.2656 133H64.4531V132.086C63.9688 132.482 63.5156 132.773 63.0938 132.961C62.6719 133.148 62.1849 133.242 61.6328 133.242C60.5651 133.242 59.7109 132.831 59.0703 132.008C58.4297 131.185 58.1094 130.076 58.1094 128.68C58.1094 127.935 58.2161 127.276 58.4297 126.703C58.6484 126.125 58.9453 125.63 59.3203 125.219C59.6745 124.828 60.1042 124.526 60.6094 124.312C61.1146 124.094 61.6198 123.984 62.125 123.984C62.651 123.984 63.0807 124.042 63.4141 124.156C63.7526 124.266 64.099 124.406 64.4531 124.578V120.844H67.2656V133ZM64.4531 130.578V126.273C64.2552 126.19 64.0469 126.13 63.8281 126.094C63.6094 126.057 63.4089 126.039 63.2266 126.039C62.487 126.039 61.9323 126.271 61.5625 126.734C61.1927 127.193 61.0078 127.831 61.0078 128.648C61.0078 129.508 61.1562 130.133 61.4531 130.523C61.75 130.909 62.2266 131.102 62.8828 131.102C63.138 131.102 63.4089 131.055 63.6953 130.961C63.9818 130.862 64.2344 130.734 64.4531 130.578Z" fill="black"/>
</svg>
