<svg width="196" height="238" viewBox="0 0 196 238" fill="none" xmlns="http://www.w3.org/2000/svg">
<path d="M1 186L89 237V117L194 57L97 1L1 186Z" fill="#F9B43D" stroke="#F9B43D"/>
<path d="M62.6138 110.888L71.696 118.803L70.2405 121.787L62.5149 120.34L68.4356 125.488L66.9801 128.472L55.1512 126.188L56.5246 123.373L64.5062 125.275L58.2472 119.841L59.5589 117.151L67.6502 118.829L61.2747 113.633L62.6138 110.888ZM74.193 104.862L71.371 110.648C72.0072 110.912 72.5941 110.908 73.1319 110.637C73.6719 110.362 74.1474 109.803 74.5584 108.96C74.8186 108.426 74.975 107.862 75.0273 107.268C75.0797 106.673 75.0667 106.177 74.9882 105.78L75.1252 105.499L77.1545 106.489C77.1053 107.172 77.0089 107.791 76.8653 108.347C76.7218 108.903 76.5004 109.487 76.2013 110.1C75.4296 111.683 74.4825 112.722 73.36 113.217C72.2374 113.713 71.0185 113.64 69.703 112.998C68.4017 112.363 67.5659 111.463 67.1957 110.297C66.823 109.125 66.9758 107.843 67.6539 106.453C68.2795 105.17 69.0752 104.365 70.0409 104.036C71.002 103.705 72.0911 103.837 73.3082 104.43L74.193 104.862ZM71.4853 106.653C70.9495 106.409 70.4877 106.346 70.0998 106.464C69.712 106.582 69.3902 106.903 69.1345 107.427C68.897 107.914 68.8282 108.376 68.928 108.813C69.0278 109.25 69.3471 109.623 69.8859 109.932L71.4853 106.653ZM82.4018 96.8528L81.1621 99.3947L77.2509 97.4871C76.9326 97.3318 76.6086 97.1941 76.279 97.0739C75.9447 96.9514 75.6832 96.8934 75.4946 96.8999C75.2757 96.9091 75.082 96.9855 74.9134 97.1293C74.747 97.2683 74.5851 97.4994 74.4275 97.8224C74.3157 98.0518 74.239 98.3041 74.1974 98.5794C74.1582 98.85 74.1531 99.1633 74.1822 99.5194L79.7716 102.246L78.5387 104.773L70.6532 100.927L71.8861 98.3995L72.7568 98.8242C72.6249 98.2035 72.5658 97.6416 72.5794 97.1383C72.5954 96.6304 72.7267 96.1236 72.9733 95.618C73.3888 94.766 73.9611 94.2223 74.6902 93.9868C75.4216 93.7467 76.2811 93.8675 77.2689 94.3492L82.4018 96.8528ZM87.402 86.6009L86.1622 89.1428L82.2511 87.2352C81.9328 87.0799 81.6088 86.9422 81.2792 86.822C80.9448 86.6995 80.6834 86.6415 80.4948 86.648C80.2759 86.6572 80.0822 86.7336 79.9135 86.8774C79.7472 87.0165 79.5853 87.2475 79.4277 87.5705C79.3158 87.7999 79.2391 88.0522 79.1976 88.3275C79.1583 88.5981 79.1533 88.9114 79.1824 89.2675L84.7718 91.9937L83.5389 94.5215L75.6533 90.6755L76.8863 88.1476L77.757 88.5723C77.6251 87.9517 77.5659 87.3897 77.5796 86.8864C77.5956 86.3785 77.7268 85.8717 77.9734 85.3661C78.389 84.5142 78.9613 83.9704 79.6904 83.735C80.4218 83.4948 81.2813 83.6156 82.269 84.0974L87.402 86.6009Z" fill="black"/>
</svg>
